<svg  viewBox="0 0 51 51" fill="none" xmlns="http://www.w3.org/2000/svg">
<g id="Group 125">
<circle id="Ellipse 16" cx="25.5" cy="25.5" r="25.5" fill="#F1F1F1"/>
<g id="icon/arrow">
<path id="Vector 1 (Stroke)" fill-rule="evenodd" clip-rule="evenodd" d="M29.0169 16.2669C29.7829 15.5009 31.0249 15.5009 31.7909 16.2669L40.6178 25.0937C40.9857 25.4616 41.1924 25.9605 41.1924 26.4808C41.1924 27.001 40.9857 27.4999 40.6178 27.8678L31.7909 36.6947C31.0249 37.4607 29.7829 37.4607 29.0169 36.6947C28.2508 35.9287 28.2508 34.6867 29.0169 33.9207L34.4952 28.4423H11.7693C10.6859 28.4423 9.80774 27.5641 9.80774 26.4808C9.80774 25.3974 10.6859 24.5192 11.7693 24.5192H34.4952L29.0169 19.0409C28.2509 18.2749 28.2508 17.0329 29.0169 16.2669Z" fill="#A53F64"/>
</g>
</g>
</svg>
